<?xml version="1.0" standalone="no"?>
<!DOCTYPE svg PUBLIC "-//W3C//DTD SVG 20010904//EN"
 "http://www.w3.org/TR/2001/REC-SVG-20010904/DTD/svg10.dtd">
<svg version="1.0" xmlns="http://www.w3.org/2000/svg"
 width="700.000000pt" height="700.000000pt" viewBox="0 0 700.000000 700.000000"
 preserveAspectRatio="xMidYMid meet">
<metadata>
Created by potrace 1.11, written by Peter Selinger 2001-2013
</metadata>
<g transform="translate(0.000000,700.000000) scale(0.100000,-0.100000)"
fill="#000000" stroke="none">
<path d="M2065 6483 c-32 -4 -170 -28 -220 -38 -109 -22 -281 -86 -410 -152
-96 -49 -271 -163 -351 -228 -113 -93 -255 -241 -281 -293 -54 -109 -26 -229
69 -301 26 -20 47 -38 47 -41 0 -3 -39 -32 -87 -65 -48 -34 -163 -114 -255
-179 l-168 -119 -167 -2 c-183 -1 -198 -5 -228 -61 -32 -59 12 -152 75 -155
14 -1 62 -3 106 -4 44 -1 83 -3 87 -4 4 0 -7 -40 -23 -88 -39 -117 -42 -138
-24 -176 15 -32 60 -67 87 -67 34 0 84 22 97 42 8 13 38 92 66 177 l51 155
270 190 269 191 53 -55 c50 -53 71 -69 157 -116 137 -75 390 -107 633 -80 l62
7 -4 -28 c-2 -15 -7 -55 -11 -88 -17 -155 -148 -736 -245 -1085 -16 -58 -47
-170 -68 -249 l-39 -145 -139 -70 c-234 -119 -416 -248 -580 -411 -104 -103
-175 -186 -227 -265 -20 -30 -40 -59 -45 -65 -15 -20 -85 -170 -104 -224 -49
-139 -70 -261 -73 -426 -5 -193 10 -298 66 -468 102 -312 314 -576 614 -765
110 -69 321 -150 471 -181 158 -33 160 -33 354 -36 178 -3 319 8 445 36 130
28 226 53 311 80 l91 29 96 -20 c52 -10 117 -22 144 -25 26 -4 55 -8 63 -10 8
-3 38 -7 65 -11 28 -3 61 -7 75 -9 136 -18 553 -25 735 -12 142 10 215 16 253
22 18 3 54 7 80 10 165 19 537 93 702 141 203 59 428 133 495 164 11 5 43 18
71 29 113 43 323 144 458 220 60 33 113 61 118 61 4 0 8 5 8 10 0 6 5 10 10
10 20 0 226 149 325 235 346 302 510 614 500 950 -6 201 -68 329 -249 511
-262 262 -659 472 -1161 613 -123 35 -352 87 -470 107 -22 4 -49 9 -60 11 -11
3 -28 5 -37 5 -10 -1 -18 1 -18 4 0 3 19 33 42 67 66 98 239 265 348 335 141
91 139 89 133 112 -9 32 -34 40 -99 30 -201 -29 -400 -118 -559 -249 -48 -40
-235 -232 -235 -242 0 -4 -17 -6 -37 -4 -210 27 -914 40 -1275 23 -94 -4 -138
-3 -138 4 0 9 54 154 79 213 50 115 186 571 207 690 2 14 6 36 9 50 15 76 19
103 31 200 11 91 8 349 -6 445 -43 317 -166 578 -364 775 -194 193 -403 295
-716 350 -41 8 -311 13 -355 8z m2143 -3226 c62 -5 111 -12 110 -16 -87 -171
-278 -569 -278 -577 0 -2 -47 -99 -104 -216 -301 -617 -500 -857 -889 -1072
-80 -45 -86 -44 -206 42 -220 158 -316 350 -307 617 2 61 13 151 24 200 19 84
87 307 100 330 4 6 7 15 8 20 3 13 103 251 144 340 18 39 50 108 72 155 22 47
44 95 49 108 6 15 17 22 36 23 16 0 37 2 48 4 22 4 68 10 155 20 30 4 69 8 85
10 17 2 84 7 150 11 66 3 122 8 123 10 8 7 577 -1 680 -9z m729 -123 c678
-172 1103 -442 1163 -739 71 -347 -348 -726 -1066 -964 -162 -54 -369 -108
-521 -136 -16 -3 -39 -7 -53 -10 -57 -11 -77 -14 -120 -20 -25 -3 -54 -7 -65
-9 -18 -4 -103 -14 -180 -22 -16 -1 -97 -6 -180 -9 l-150 -7 77 78 c240 245
418 536 581 949 30 77 101 275 157 440 55 165 117 344 137 397 34 95 36 98 62
92 14 -4 86 -21 158 -40z m-3472 -696 c0 -267 8 -350 51 -538 58 -253 177
-500 330 -688 25 -30 43 -57 40 -59 -11 -11 -232 63 -321 108 -55 28 -102 54
-105 57 -3 4 -23 20 -45 37 -150 110 -268 299 -300 480 -13 72 -12 236 1 301
28 132 98 274 191 389 20 24 154 165 157 165 1 0 1 -114 1 -252z"/>
</g>
</svg>
